name ./resultDataOpenSim/trcMotMarkerGrf/sub10/grf-12-01.mot
datacolumns 19
datarows 12
range 0.46400000 0.50800000
endheader

                time	     ground_force_vx	     ground_force_vy	     ground_force_vz	     ground_force_px	     ground_force_py	     ground_force_pz	   l_ground_force_vx	   l_ground_force_vy	   l_ground_force_vz	   l_ground_force_px	   l_ground_force_py	   l_ground_force_pz	     ground_torque_x	     ground_torque_y	     ground_torque_z	   l_ground_torque_x	   l_ground_torque_y	   l_ground_torque_z	
          0.46400000	         30.67623804	        522.09036050	         -1.83061881	         -0.86192813	          0.00000000	         -0.09566710	          0.00000000	          0.00000000	          0.00000000	          0.00000000	          0.00000000	          0.00000000	          0.00000000	          4.42748149	          0.00000000	          0.00000000	          0.00000000	          0.00000000	
          0.46800000	         29.42004578	        519.85235277	         -1.88159816	         -0.85943795	          0.00000000	         -0.09565236	          0.00000000	          0.00000000	          0.00000000	          0.00000000	          0.00000000	          0.00000000	          0.00000000	          4.41641579	          0.00000000	          0.00000000	          0.00000000	          0.00000000	
          0.47200000	         27.68190636	        516.52212333	         -2.14536364	         -0.85672969	          0.00000000	         -0.09562358	          0.00000000	          0.00000000	          0.00000000	          0.00000000	          0.00000000	          0.00000000	          0.00000000	          4.37488298	          0.00000000	          0.00000000	          0.00000000	          0.00000000	
          0.47600000	         25.62746344	        512.52409318	         -2.66928716	         -0.85386950	          0.00000000	         -0.09557154	          0.00000000	          0.00000000	          0.00000000	          0.00000000	          0.00000000	          0.00000000	          0.00000000	          4.30983320	          0.00000000	          0.00000000	          0.00000000	          0.00000000	
          0.48000000	         23.57465727	        508.29124048	         -3.46491771	         -0.85095196	          0.00000000	         -0.09549109	          0.00000000	          0.00000000	          0.00000000	          0.00000000	          0.00000000	          0.00000000	          0.00000000	          4.23494959	          0.00000000	          0.00000000	          0.00000000	          0.00000000	
          0.48400000	         21.91454137	        504.20055314	         -4.49737422	         -0.84808073	          0.00000000	         -0.09538181	          0.00000000	          0.00000000	          0.00000000	          0.00000000	          0.00000000	          0.00000000	          0.00000000	          4.16760310	          0.00000000	          0.00000000	          0.00000000	          0.00000000	
          0.48800000	         21.00920652	        500.54825710	         -5.69009052	         -0.84534740	          0.00000000	         -0.09524858	          0.00000000	          0.00000000	          0.00000000	          0.00000000	          0.00000000	          0.00000000	          0.00000000	          4.12490150	          0.00000000	          0.00000000	          0.00000000	          0.00000000	
          0.49200000	         21.09840668	        497.56147834	         -6.94174833	         -0.84282426	          0.00000000	         -0.09509800	          0.00000000	          0.00000000	          0.00000000	          0.00000000	          0.00000000	          0.00000000	          0.00000000	          4.11987688	          0.00000000	          0.00000000	          0.00000000	          0.00000000	
          0.49600000	         22.24391275	        495.40594166	         -8.14857828	         -0.84055363	          0.00000000	         -0.09493362	          0.00000000	          0.00000000	          0.00000000	          0.00000000	          0.00000000	          0.00000000	          0.00000000	          4.15870459	          0.00000000	          0.00000000	          0.00000000	          0.00000000	
          0.50000000	         24.32594631	        494.17879837	         -9.22777998	         -0.83853538	          0.00000000	         -0.09475617	          0.00000000	          0.00000000	          0.00000000	          0.00000000	          0.00000000	          0.00000000	          0.00000000	          4.23958077	          0.00000000	          0.00000000	          0.00000000	          0.00000000	
          0.50400000	         27.08922338	        493.91057337	        -10.13716958	         -0.83673438	          0.00000000	         -0.09456564	          0.00000000	          0.00000000	          0.00000000	          0.00000000	          0.00000000	          0.00000000	          0.00000000	          4.35352637	          0.00000000	          0.00000000	          0.00000000	          0.00000000	
          0.50800000	         30.22335773	        494.58438354	        -10.88459397	         -0.83507707	          0.00000000	         -0.09436811	          0.00000000	          0.00000000	          0.00000000	          0.00000000	          0.00000000	          0.00000000	          0.00000000	          4.48691514	          0.00000000	          0.00000000	          0.00000000	          0.00000000	
